<svg width="40" height="36" viewBox="0 0 40 36" fill="none" xmlns="http://www.w3.org/2000/svg">
<path fill-rule="evenodd" clip-rule="evenodd" d="M10.7568 0C8.39857 0 6.5631 0.574759 5.15097 1.48858C3.74366 2.39927 2.81517 3.60868 2.2056 4.79208C1.59837 5.97094 1.29968 7.13819 1.15125 8.00265C1.07664 8.43718 1.03892 8.80157 1.0198 9.06138C1.01023 9.19145 1.00528 9.29582 1.00273 9.37022C1.00145 9.40744 1.00077 9.43721 1.00041 9.459L1.00007 9.48566L1.00001 9.4944L1 9.49759L1 9.49889C1 9.49946 1 9.5 2 9.5H1V36H7.86486V11.0831L7.87232 11.0444C7.88713 10.9698 7.91193 10.8577 7.94995 10.721C8.02707 10.4436 8.15297 10.0849 8.34697 9.73593C8.73148 9.04435 9.30481 8.5 10.2703 8.5C11.2357 8.5 11.8091 9.04435 12.1936 9.73593C12.3876 10.0849 12.5135 10.4436 12.5906 10.721C12.6286 10.8577 12.6534 10.9698 12.6682 11.0444L12.6757 11.0831V36H14.6757V10.9308L14.6662 10.8623L13.6757 11C14.6662 10.8623 14.6662 10.8628 14.6662 10.8623L14.6659 10.8606L14.6656 10.8585L14.6649 10.8534L14.6628 10.8393C14.6611 10.8282 14.6588 10.8137 14.6559 10.7962C14.65 10.7611 14.6415 10.7134 14.6299 10.6548C14.6067 10.538 14.5707 10.3767 14.5175 10.1853C14.4122 9.80644 14.2341 9.29014 13.9416 8.76407C13.3531 7.70565 12.2237 6.5 10.2703 6.5C8.31681 6.5 7.18744 7.70565 6.59898 8.76407C6.30649 9.29014 6.12834 9.80644 6.02302 10.1853C5.96982 10.3767 5.93381 10.538 5.91062 10.6548C5.899 10.7134 5.89052 10.7611 5.88467 10.7962C5.88174 10.8137 5.87946 10.8282 5.87777 10.8393L5.87566 10.8534L5.87493 10.8585L5.87463 10.8606C5.87457 10.861 5.87439 10.8623 6.86486 11L5.87439 10.8623L5.86486 10.9308V34H3V9.50202L3.00013 9.49223C3.0003 9.48186 3.00069 9.4639 3.00155 9.43886C3.00327 9.38875 3.00688 9.3105 3.01441 9.20815C3.02949 9.00311 3.06019 8.70344 3.1224 8.3411C3.24762 7.61181 3.49623 6.65406 3.98359 5.70792C4.46861 4.76632 5.18201 3.85073 6.23754 3.16767C7.28825 2.48774 8.73656 2 10.7568 2C14.6427 2 16.6601 4.17044 17.7629 6.43747C18.3218 7.58625 18.634 8.747 18.8056 9.62851C18.8909 10.067 18.9403 10.4304 18.9681 10.6808C18.982 10.8059 18.9905 10.9023 18.9954 10.9653C18.9976 10.9935 18.9991 11.0149 19 11.0292V36H25.8649V11.0831L25.8723 11.0444C25.8871 10.9698 25.9119 10.8577 25.95 10.721C26.0271 10.4436 26.153 10.0849 26.347 9.73593C26.7315 9.04435 27.3048 8.5 28.2703 8.5C29.2357 8.5 29.8091 9.04435 30.1936 9.73593C30.3876 10.0849 30.5135 10.4436 30.5906 10.721C30.6286 10.8577 30.6534 10.9698 30.6682 11.0444L30.6757 11.0831V36H32.6757V10.9308L32.6662 10.8623L31.6757 11C32.6662 10.8623 32.6662 10.8628 32.6662 10.8623L32.6659 10.8606L32.6656 10.8585L32.6649 10.8534L32.6628 10.8393C32.6611 10.8282 32.6588 10.8137 32.6559 10.7962C32.65 10.7611 32.6415 10.7134 32.6299 10.6548C32.6067 10.538 32.5707 10.3767 32.5175 10.1853C32.4122 9.80644 32.2341 9.29014 31.9416 8.76407C31.3531 7.70565 30.2237 6.5 28.2703 6.5C26.3168 6.5 25.1874 7.70565 24.599 8.76407C24.3065 9.29014 24.1283 9.80644 24.023 10.1853C23.9698 10.3767 23.9338 10.538 23.9106 10.6548C23.899 10.7134 23.8905 10.7611 23.8847 10.7962C23.8817 10.8137 23.8795 10.8282 23.8778 10.8393L23.8757 10.8534L23.8749 10.8585L23.8746 10.8606C23.8746 10.861 23.8744 10.8623 24.8649 11L23.8744 10.8623L23.8649 10.9308V34H21V9.51956C21.0005 9.50902 21.0014 9.49147 21.0029 9.46737C21.0061 9.41722 21.0119 9.33889 21.0224 9.23644C21.0433 9.03121 21.0827 8.73117 21.1554 8.36829C21.3016 7.63825 21.5782 6.6777 22.0948 5.72768C22.6091 4.78169 23.3533 3.8599 24.4358 3.17217C25.5131 2.48768 26.9801 2 29 2C30.9846 2 32.4292 2.56173 33.5018 3.36347C34.5872 4.17477 35.3466 5.27391 35.876 6.41952C36.4057 7.56555 36.6894 8.72436 36.8394 9.60535C36.9139 10.0434 36.9545 10.4066 36.9762 10.6569C36.9871 10.7818 36.9932 10.8782 36.9966 10.9411C36.9982 10.9726 36.9992 10.9957 36.9998 11.0097L37 11.0161V36H39V10.9878L38.9997 10.9757L38 11C38.9997 10.9757 38.9997 10.9762 38.9997 10.9757L38.9996 10.9735L38.9996 10.9704L38.9993 10.9615L38.9983 10.9329C38.9974 10.9091 38.9959 10.876 38.9937 10.8343C38.9892 10.7507 38.9816 10.6322 38.9687 10.4838C38.9429 10.1871 38.896 9.76907 38.811 9.26965C38.6417 8.27564 38.3173 6.93445 37.6915 5.58048C37.0656 4.22609 36.1223 2.82523 34.6992 1.76153C33.2634 0.688272 31.3938 0 29 0C26.6415 0 24.7943 0.574819 23.3632 1.48408C21.9372 2.3901 20.9787 3.59331 20.3377 4.77232C20.111 5.18928 19.923 5.60492 19.767 6.00626C19.702 5.85879 19.6335 5.71073 19.5614 5.56253C18.2318 2.82956 15.6276 0 10.7568 0ZM25.8548 11.1416C25.8546 11.1426 25.8547 11.142 25.8548 11.1416Z" fill="url(#paint0_linear_48_29)"/>
<defs>
<linearGradient id="paint0_linear_48_29" x1="-0.499999" y1="37" x2="39.5" y2="-1.96666e-06" gradientUnits="userSpaceOnUse">
<stop stop-color="#E98800"/>
<stop offset="1" stop-color="#FFC153"/>
</linearGradient>
</defs>
</svg>
